<mxfile host="Electron" agent="Mozilla/5.0 (Macintosh; Intel Mac OS X 10_15_7) AppleWebKit/537.36 (KHTML, like Gecko) draw.io/24.7.17 Chrome/128.0.6613.36 Electron/32.0.1 Safari/537.36" version="24.7.17">
  <diagram id="yPxyJZ8AM_hMuL3Unpa9" name="complex gitflow">
    <mxGraphModel dx="1383" dy="1025" grid="1" gridSize="10" guides="1" tooltips="1" connect="1" arrows="1" fold="1" page="1" pageScale="1" pageWidth="1100" pageHeight="850" math="0" shadow="0">
      <root>
        <mxCell id="0" />
        <mxCell id="1" parent="0" />
        <mxCell id="caduvn27hfPRV0Jp8U-R-25" style="edgeStyle=orthogonalEdgeStyle;rounded=0;orthogonalLoop=1;jettySize=auto;html=1;fontSize=12;startSize=8;endSize=8;curved=1;strokeWidth=4;metaEdit=0;sourcePortConstraint=south;targetPortConstraint=north;arcSize=40;strokeColor=#00CC00;" edge="1" parent="1" source="caduvn27hfPRV0Jp8U-R-10" target="caduvn27hfPRV0Jp8U-R-17">
          <mxGeometry relative="1" as="geometry" />
        </mxCell>
        <mxCell id="caduvn27hfPRV0Jp8U-R-10" value="" style="verticalLabelPosition=bottom;verticalAlign=top;html=1;strokeWidth=4;shape=mxgraph.flowchart.on-page_reference;plain-blue;gradientColor=none;fillColor=#B5E3Fe;strokeColor=#000000;" vertex="1" parent="1">
          <mxGeometry x="209" y="560" width="30" height="30" as="geometry" />
        </mxCell>
        <mxCell id="caduvn27hfPRV0Jp8U-R-11" value="" style="verticalLabelPosition=bottom;verticalAlign=top;html=1;strokeWidth=4;shape=mxgraph.flowchart.on-page_reference;plain-blue;gradientColor=none;fillColor=#B5E3Fe;strokeColor=#000000;" vertex="1" parent="1">
          <mxGeometry x="209" y="1260" width="30" height="30" as="geometry" />
        </mxCell>
        <mxCell id="caduvn27hfPRV0Jp8U-R-27" style="edgeStyle=orthogonalEdgeStyle;rounded=0;orthogonalLoop=1;jettySize=auto;html=1;fontSize=12;startSize=8;endSize=8;curved=1;strokeWidth=4;metaEdit=0;sourcePortConstraint=south;targetPortConstraint=north;arcSize=40;" edge="1" parent="1" source="caduvn27hfPRV0Jp8U-R-12" target="caduvn27hfPRV0Jp8U-R-15">
          <mxGeometry relative="1" as="geometry" />
        </mxCell>
        <mxCell id="caduvn27hfPRV0Jp8U-R-12" value="" style="verticalLabelPosition=bottom;verticalAlign=top;html=1;strokeWidth=4;shape=mxgraph.flowchart.on-page_reference;plain-purple;gradientColor=none;strokeColor=#000000;fillColor=#D5E8D4;" vertex="1" parent="1">
          <mxGeometry x="571" y="800" width="30" height="30" as="geometry" />
        </mxCell>
        <mxCell id="caduvn27hfPRV0Jp8U-R-34" style="edgeStyle=orthogonalEdgeStyle;rounded=0;orthogonalLoop=1;jettySize=auto;html=1;fontSize=12;startSize=8;endSize=8;curved=1;strokeWidth=4;metaEdit=0;sourcePortConstraint=south;targetPortConstraint=north;arcSize=40;" edge="1" parent="1" source="caduvn27hfPRV0Jp8U-R-13" target="caduvn27hfPRV0Jp8U-R-18">
          <mxGeometry relative="1" as="geometry" />
        </mxCell>
        <mxCell id="caduvn27hfPRV0Jp8U-R-13" value="" style="verticalLabelPosition=bottom;verticalAlign=top;html=1;strokeWidth=4;shape=mxgraph.flowchart.on-page_reference;plain-purple;gradientColor=none;strokeColor=#000000;fillColor=#D5E8D4;" vertex="1" parent="1">
          <mxGeometry x="330" y="1720" width="30" height="30" as="geometry" />
        </mxCell>
        <mxCell id="caduvn27hfPRV0Jp8U-R-14" value="" style="verticalLabelPosition=bottom;verticalAlign=top;html=1;strokeWidth=4;shape=mxgraph.flowchart.on-page_reference;plain-blue;gradientColor=none;fillColor=#B5E3Fe;strokeColor=#000000;" vertex="1" parent="1">
          <mxGeometry x="209" y="1920" width="30" height="30" as="geometry" />
        </mxCell>
        <mxCell id="caduvn27hfPRV0Jp8U-R-28" style="edgeStyle=orthogonalEdgeStyle;rounded=0;orthogonalLoop=1;jettySize=auto;html=1;fontSize=12;startSize=8;endSize=8;curved=1;strokeWidth=4;metaEdit=0;sourcePortConstraint=south;targetPortConstraint=north;arcSize=40;strokeColor=#FF0000;" edge="1" parent="1" source="caduvn27hfPRV0Jp8U-R-15" target="caduvn27hfPRV0Jp8U-R-16">
          <mxGeometry relative="1" as="geometry" />
        </mxCell>
        <mxCell id="caduvn27hfPRV0Jp8U-R-15" value="" style="verticalLabelPosition=bottom;verticalAlign=top;html=1;strokeWidth=4;shape=mxgraph.flowchart.on-page_reference;plain-purple;gradientColor=none;strokeColor=#000000;fillColor=#D5E8D4;" vertex="1" parent="1">
          <mxGeometry x="571" y="880" width="30" height="30" as="geometry" />
        </mxCell>
        <mxCell id="caduvn27hfPRV0Jp8U-R-29" style="edgeStyle=orthogonalEdgeStyle;rounded=0;orthogonalLoop=1;jettySize=auto;html=1;fontSize=12;startSize=8;endSize=8;curved=1;strokeWidth=4;metaEdit=0;sourcePortConstraint=south;targetPortConstraint=north;arcSize=40;" edge="1" parent="1" source="caduvn27hfPRV0Jp8U-R-16" target="caduvn27hfPRV0Jp8U-R-19">
          <mxGeometry relative="1" as="geometry" />
        </mxCell>
        <mxCell id="caduvn27hfPRV0Jp8U-R-40" value="" style="edgeStyle=none;curved=1;rounded=0;orthogonalLoop=1;jettySize=auto;html=1;fontSize=12;startSize=8;endSize=8;" edge="1" parent="1" source="caduvn27hfPRV0Jp8U-R-16" target="caduvn27hfPRV0Jp8U-R-19">
          <mxGeometry relative="1" as="geometry" />
        </mxCell>
        <mxCell id="caduvn27hfPRV0Jp8U-R-16" value="" style="verticalLabelPosition=bottom;verticalAlign=top;html=1;strokeWidth=4;shape=mxgraph.flowchart.on-page_reference;plain-purple;gradientColor=none;strokeColor=#000000;fillColor=#D5E8D4;" vertex="1" parent="1">
          <mxGeometry x="448.5" y="1000" width="30" height="30" as="geometry" />
        </mxCell>
        <mxCell id="caduvn27hfPRV0Jp8U-R-26" style="edgeStyle=orthogonalEdgeStyle;rounded=0;orthogonalLoop=1;jettySize=auto;html=1;fontSize=12;startSize=8;endSize=8;curved=1;strokeWidth=4;metaEdit=0;sourcePortConstraint=south;targetPortConstraint=north;arcSize=40;strokeColor=#CC00CC;" edge="1" parent="1" source="caduvn27hfPRV0Jp8U-R-17" target="caduvn27hfPRV0Jp8U-R-12">
          <mxGeometry relative="1" as="geometry" />
        </mxCell>
        <mxCell id="caduvn27hfPRV0Jp8U-R-36" style="edgeStyle=orthogonalEdgeStyle;rounded=0;orthogonalLoop=1;jettySize=auto;html=1;fontSize=12;startSize=8;endSize=8;curved=1;strokeWidth=4;metaEdit=0;sourcePortConstraint=south;targetPortConstraint=north;arcSize=40;" edge="1" parent="1" source="caduvn27hfPRV0Jp8U-R-17" target="caduvn27hfPRV0Jp8U-R-16">
          <mxGeometry relative="1" as="geometry" />
        </mxCell>
        <mxCell id="caduvn27hfPRV0Jp8U-R-17" value="" style="verticalLabelPosition=bottom;verticalAlign=top;html=1;strokeWidth=4;shape=mxgraph.flowchart.on-page_reference;plain-purple;gradientColor=none;strokeColor=#000000;fillColor=#D5E8D4;" vertex="1" parent="1">
          <mxGeometry x="448.5" y="680" width="30" height="30" as="geometry" />
        </mxCell>
        <mxCell id="caduvn27hfPRV0Jp8U-R-35" style="edgeStyle=orthogonalEdgeStyle;rounded=0;orthogonalLoop=1;jettySize=auto;html=1;fontSize=12;startSize=8;endSize=8;curved=1;strokeWidth=4;metaEdit=0;sourcePortConstraint=south;targetPortConstraint=north;arcSize=40;" edge="1" parent="1" source="caduvn27hfPRV0Jp8U-R-18" target="caduvn27hfPRV0Jp8U-R-14">
          <mxGeometry relative="1" as="geometry" />
        </mxCell>
        <mxCell id="caduvn27hfPRV0Jp8U-R-18" value="" style="verticalLabelPosition=bottom;verticalAlign=top;html=1;strokeWidth=4;shape=mxgraph.flowchart.on-page_reference;plain-purple;gradientColor=none;strokeColor=#000000;fillColor=#D5E8D4;" vertex="1" parent="1">
          <mxGeometry x="330" y="1800" width="30" height="30" as="geometry" />
        </mxCell>
        <mxCell id="caduvn27hfPRV0Jp8U-R-30" style="edgeStyle=orthogonalEdgeStyle;rounded=0;orthogonalLoop=1;jettySize=auto;html=1;fontSize=12;startSize=8;endSize=8;curved=1;strokeWidth=4;metaEdit=0;sourcePortConstraint=south;targetPortConstraint=north;arcSize=40;strokeColor=#CC00CC;" edge="1" parent="1" source="caduvn27hfPRV0Jp8U-R-19" target="caduvn27hfPRV0Jp8U-R-20">
          <mxGeometry relative="1" as="geometry" />
        </mxCell>
        <mxCell id="caduvn27hfPRV0Jp8U-R-19" value="" style="verticalLabelPosition=bottom;verticalAlign=top;html=1;strokeWidth=4;shape=mxgraph.flowchart.on-page_reference;plain-purple;gradientColor=none;strokeColor=#000000;fillColor=#D5E8D4;" vertex="1" parent="1">
          <mxGeometry x="448.5" y="1120" width="30" height="30" as="geometry" />
        </mxCell>
        <mxCell id="caduvn27hfPRV0Jp8U-R-31" style="edgeStyle=orthogonalEdgeStyle;rounded=0;orthogonalLoop=1;jettySize=auto;html=1;fontSize=12;startSize=8;endSize=8;curved=1;strokeWidth=4;metaEdit=0;sourcePortConstraint=south;targetPortConstraint=north;arcSize=40;" edge="1" parent="1" source="caduvn27hfPRV0Jp8U-R-20" target="caduvn27hfPRV0Jp8U-R-21">
          <mxGeometry relative="1" as="geometry" />
        </mxCell>
        <mxCell id="caduvn27hfPRV0Jp8U-R-20" value="" style="verticalLabelPosition=bottom;verticalAlign=top;html=1;strokeWidth=4;shape=mxgraph.flowchart.on-page_reference;plain-purple;gradientColor=none;strokeColor=#000000;fillColor=#D5E8D4;" vertex="1" parent="1">
          <mxGeometry x="690" y="1240" width="30" height="30" as="geometry" />
        </mxCell>
        <mxCell id="caduvn27hfPRV0Jp8U-R-32" style="edgeStyle=orthogonalEdgeStyle;rounded=0;orthogonalLoop=1;jettySize=auto;html=1;fontSize=12;startSize=8;endSize=8;curved=1;strokeWidth=4;metaEdit=0;sourcePortConstraint=south;targetPortConstraint=north;arcSize=40;strokeColor=#FF0000;" edge="1" parent="1" source="caduvn27hfPRV0Jp8U-R-21" target="caduvn27hfPRV0Jp8U-R-22">
          <mxGeometry relative="1" as="geometry" />
        </mxCell>
        <mxCell id="caduvn27hfPRV0Jp8U-R-21" value="" style="verticalLabelPosition=bottom;verticalAlign=top;html=1;strokeWidth=4;shape=mxgraph.flowchart.on-page_reference;plain-purple;gradientColor=none;strokeColor=#000000;fillColor=#D5E8D4;" vertex="1" parent="1">
          <mxGeometry x="690" y="1360" width="30" height="30" as="geometry" />
        </mxCell>
        <mxCell id="caduvn27hfPRV0Jp8U-R-33" style="edgeStyle=orthogonalEdgeStyle;rounded=0;orthogonalLoop=1;jettySize=auto;html=1;fontSize=12;startSize=8;endSize=8;curved=1;strokeWidth=4;metaEdit=0;sourcePortConstraint=south;targetPortConstraint=north;arcSize=40;strokeColor=#FF0000;" edge="1" parent="1" source="caduvn27hfPRV0Jp8U-R-22" target="caduvn27hfPRV0Jp8U-R-44">
          <mxGeometry relative="1" as="geometry" />
        </mxCell>
        <mxCell id="caduvn27hfPRV0Jp8U-R-22" value="" style="verticalLabelPosition=bottom;verticalAlign=top;html=1;strokeWidth=4;shape=mxgraph.flowchart.on-page_reference;plain-purple;gradientColor=none;strokeColor=#000000;fillColor=#D5E8D4;" vertex="1" parent="1">
          <mxGeometry x="448.5" y="1480" width="30" height="30" as="geometry" />
        </mxCell>
        <mxCell id="caduvn27hfPRV0Jp8U-R-39" value="" style="verticalLabelPosition=bottom;verticalAlign=top;html=1;strokeWidth=4;shape=mxgraph.flowchart.on-page_reference;plain-purple;gradientColor=none;strokeColor=#000000;fillColor=#D5E8D4;" vertex="1" parent="1">
          <mxGeometry x="448.5" y="1360" width="30" height="30" as="geometry" />
        </mxCell>
        <mxCell id="caduvn27hfPRV0Jp8U-R-41" style="edgeStyle=orthogonalEdgeStyle;rounded=0;orthogonalLoop=1;jettySize=auto;html=1;fontSize=12;startSize=8;endSize=8;curved=1;strokeWidth=4;metaEdit=0;sourcePortConstraint=south;targetPortConstraint=north;arcSize=40;" edge="1" parent="1" source="caduvn27hfPRV0Jp8U-R-19" target="caduvn27hfPRV0Jp8U-R-39">
          <mxGeometry relative="1" as="geometry">
            <mxPoint x="474" y="1040" as="sourcePoint" />
            <mxPoint x="474" y="1130" as="targetPoint" />
          </mxGeometry>
        </mxCell>
        <mxCell id="caduvn27hfPRV0Jp8U-R-42" style="edgeStyle=orthogonalEdgeStyle;rounded=0;orthogonalLoop=1;jettySize=auto;html=1;fontSize=12;startSize=8;endSize=8;curved=1;strokeWidth=4;metaEdit=0;sourcePortConstraint=south;targetPortConstraint=north;arcSize=40;" edge="1" parent="1" source="caduvn27hfPRV0Jp8U-R-39" target="caduvn27hfPRV0Jp8U-R-22">
          <mxGeometry relative="1" as="geometry">
            <mxPoint x="484" y="1010" as="sourcePoint" />
            <mxPoint x="484" y="1100" as="targetPoint" />
          </mxGeometry>
        </mxCell>
        <mxCell id="caduvn27hfPRV0Jp8U-R-43" style="edgeStyle=orthogonalEdgeStyle;rounded=0;orthogonalLoop=1;jettySize=auto;html=1;fontSize=12;startSize=8;endSize=8;curved=1;strokeWidth=4;metaEdit=0;sourcePortConstraint=south;targetPortConstraint=north;arcSize=40;strokeColor=#FF0000;" edge="1" parent="1" source="caduvn27hfPRV0Jp8U-R-19" target="caduvn27hfPRV0Jp8U-R-11">
          <mxGeometry relative="1" as="geometry">
            <mxPoint x="474" y="1160" as="sourcePoint" />
            <mxPoint x="715" y="1250" as="targetPoint" />
          </mxGeometry>
        </mxCell>
        <mxCell id="caduvn27hfPRV0Jp8U-R-44" value="" style="verticalLabelPosition=bottom;verticalAlign=top;html=1;strokeWidth=4;shape=mxgraph.flowchart.on-page_reference;plain-blue;gradientColor=none;fillColor=#B5E3Fe;strokeColor=#000000;" vertex="1" parent="1">
          <mxGeometry x="209" y="1600" width="30" height="30" as="geometry" />
        </mxCell>
        <mxCell id="caduvn27hfPRV0Jp8U-R-45" style="edgeStyle=orthogonalEdgeStyle;rounded=0;orthogonalLoop=1;jettySize=auto;html=1;fontSize=12;startSize=8;endSize=8;curved=1;strokeWidth=4;metaEdit=0;sourcePortConstraint=south;targetPortConstraint=north;arcSize=40;" edge="1" parent="1" source="caduvn27hfPRV0Jp8U-R-11" target="caduvn27hfPRV0Jp8U-R-44">
          <mxGeometry relative="1" as="geometry">
            <mxPoint x="110" y="1300" as="sourcePoint" />
            <mxPoint x="234" y="1270" as="targetPoint" />
          </mxGeometry>
        </mxCell>
        <mxCell id="caduvn27hfPRV0Jp8U-R-46" style="edgeStyle=orthogonalEdgeStyle;rounded=0;orthogonalLoop=1;jettySize=auto;html=1;fontSize=12;startSize=8;endSize=8;curved=1;strokeWidth=4;metaEdit=0;sourcePortConstraint=south;targetPortConstraint=north;arcSize=40;" edge="1" parent="1" source="caduvn27hfPRV0Jp8U-R-44" target="caduvn27hfPRV0Jp8U-R-14">
          <mxGeometry relative="1" as="geometry">
            <mxPoint x="234" y="1340" as="sourcePoint" />
            <mxPoint x="234" y="1610" as="targetPoint" />
          </mxGeometry>
        </mxCell>
        <mxCell id="caduvn27hfPRV0Jp8U-R-47" style="edgeStyle=orthogonalEdgeStyle;rounded=0;orthogonalLoop=1;jettySize=auto;html=1;fontSize=12;startSize=8;endSize=8;curved=1;strokeWidth=4;metaEdit=0;sourcePortConstraint=south;targetPortConstraint=north;arcSize=40;strokeColor=#00CC00;" edge="1" parent="1" source="caduvn27hfPRV0Jp8U-R-44" target="caduvn27hfPRV0Jp8U-R-13">
          <mxGeometry relative="1" as="geometry">
            <mxPoint x="244" y="1350" as="sourcePoint" />
            <mxPoint x="244" y="1620" as="targetPoint" />
          </mxGeometry>
        </mxCell>
        <mxCell id="caduvn27hfPRV0Jp8U-R-48" value="" style="verticalLabelPosition=bottom;verticalAlign=top;html=1;strokeWidth=4;shape=mxgraph.flowchart.on-page_reference;plain-purple;gradientColor=none;strokeColor=#000000;fillColor=#D5E8D4;" vertex="1" parent="1">
          <mxGeometry x="330" y="680" width="30" height="30" as="geometry" />
        </mxCell>
        <mxCell id="caduvn27hfPRV0Jp8U-R-49" value="" style="verticalLabelPosition=bottom;verticalAlign=top;html=1;strokeWidth=4;shape=mxgraph.flowchart.on-page_reference;plain-purple;gradientColor=none;strokeColor=#000000;fillColor=#D5E8D4;" vertex="1" parent="1">
          <mxGeometry x="330" y="800" width="30" height="30" as="geometry" />
        </mxCell>
        <mxCell id="caduvn27hfPRV0Jp8U-R-50" style="edgeStyle=orthogonalEdgeStyle;rounded=0;orthogonalLoop=1;jettySize=auto;html=1;fontSize=12;startSize=8;endSize=8;curved=1;strokeWidth=4;metaEdit=0;sourcePortConstraint=south;targetPortConstraint=north;arcSize=40;strokeColor=#00CC00;" edge="1" parent="1" source="caduvn27hfPRV0Jp8U-R-10" target="caduvn27hfPRV0Jp8U-R-48">
          <mxGeometry relative="1" as="geometry">
            <mxPoint x="474" y="720" as="sourcePoint" />
            <mxPoint x="474" y="1010" as="targetPoint" />
            <Array as="points">
              <mxPoint x="224" y="630" />
              <mxPoint x="345" y="630" />
            </Array>
          </mxGeometry>
        </mxCell>
        <mxCell id="caduvn27hfPRV0Jp8U-R-51" style="edgeStyle=orthogonalEdgeStyle;rounded=0;orthogonalLoop=1;jettySize=auto;html=1;fontSize=12;startSize=8;endSize=8;curved=1;strokeWidth=4;metaEdit=0;sourcePortConstraint=south;targetPortConstraint=north;arcSize=40;" edge="1" parent="1" source="caduvn27hfPRV0Jp8U-R-48" target="caduvn27hfPRV0Jp8U-R-49">
          <mxGeometry relative="1" as="geometry">
            <mxPoint x="234" y="480" as="sourcePoint" />
            <mxPoint x="355" y="690" as="targetPoint" />
          </mxGeometry>
        </mxCell>
        <mxCell id="caduvn27hfPRV0Jp8U-R-52" value="" style="verticalLabelPosition=bottom;verticalAlign=top;html=1;strokeWidth=4;shape=mxgraph.flowchart.on-page_reference;plain-blue;gradientColor=none;fillColor=#B5E3Fe;strokeColor=#000000;" vertex="1" parent="1">
          <mxGeometry x="209" y="960" width="30" height="30" as="geometry" />
        </mxCell>
        <mxCell id="caduvn27hfPRV0Jp8U-R-53" style="edgeStyle=orthogonalEdgeStyle;rounded=0;orthogonalLoop=1;jettySize=auto;html=1;fontSize=12;startSize=8;endSize=8;curved=1;strokeWidth=4;metaEdit=0;sourcePortConstraint=south;targetPortConstraint=north;arcSize=40;" edge="1" parent="1" source="caduvn27hfPRV0Jp8U-R-10" target="caduvn27hfPRV0Jp8U-R-52">
          <mxGeometry relative="1" as="geometry">
            <mxPoint x="234" y="600" as="sourcePoint" />
            <mxPoint x="355" y="690" as="targetPoint" />
          </mxGeometry>
        </mxCell>
        <mxCell id="caduvn27hfPRV0Jp8U-R-54" style="edgeStyle=orthogonalEdgeStyle;rounded=0;orthogonalLoop=1;jettySize=auto;html=1;fontSize=12;startSize=8;endSize=8;curved=1;strokeWidth=4;metaEdit=0;sourcePortConstraint=south;targetPortConstraint=north;arcSize=40;" edge="1" parent="1" source="caduvn27hfPRV0Jp8U-R-52" target="caduvn27hfPRV0Jp8U-R-11">
          <mxGeometry relative="1" as="geometry">
            <mxPoint x="244" y="610" as="sourcePoint" />
            <mxPoint x="365" y="700" as="targetPoint" />
          </mxGeometry>
        </mxCell>
        <mxCell id="caduvn27hfPRV0Jp8U-R-55" style="edgeStyle=orthogonalEdgeStyle;rounded=0;orthogonalLoop=1;jettySize=auto;html=1;fontSize=12;startSize=8;endSize=8;curved=1;strokeWidth=4;metaEdit=0;sourcePortConstraint=south;targetPortConstraint=north;arcSize=40;" edge="1" parent="1" source="caduvn27hfPRV0Jp8U-R-49" target="caduvn27hfPRV0Jp8U-R-52">
          <mxGeometry relative="1" as="geometry">
            <mxPoint x="254" y="620" as="sourcePoint" />
            <mxPoint x="375" y="710" as="targetPoint" />
          </mxGeometry>
        </mxCell>
        <mxCell id="caduvn27hfPRV0Jp8U-R-56" style="edgeStyle=orthogonalEdgeStyle;rounded=0;orthogonalLoop=1;jettySize=auto;html=1;fontSize=12;startSize=8;endSize=8;curved=1;strokeWidth=4;metaEdit=0;sourcePortConstraint=south;targetPortConstraint=north;arcSize=40;" edge="1" parent="1" source="caduvn27hfPRV0Jp8U-R-49" target="caduvn27hfPRV0Jp8U-R-13">
          <mxGeometry relative="1" as="geometry">
            <mxPoint x="234" y="600" as="sourcePoint" />
            <mxPoint x="270" y="1640" as="targetPoint" />
          </mxGeometry>
        </mxCell>
        <mxCell id="caduvn27hfPRV0Jp8U-R-57" value="" style="verticalLabelPosition=bottom;verticalAlign=top;html=1;strokeWidth=4;shape=mxgraph.flowchart.on-page_reference;plain-purple;gradientColor=none;strokeColor=#000000;fillColor=#D5E8D4;" vertex="1" parent="1">
          <mxGeometry x="571" y="1240" width="30" height="30" as="geometry" />
        </mxCell>
        <mxCell id="caduvn27hfPRV0Jp8U-R-58" style="edgeStyle=orthogonalEdgeStyle;rounded=0;orthogonalLoop=1;jettySize=auto;html=1;fontSize=12;startSize=8;endSize=8;curved=1;strokeWidth=4;metaEdit=0;sourcePortConstraint=south;targetPortConstraint=north;arcSize=40;" edge="1" parent="1" source="caduvn27hfPRV0Jp8U-R-15" target="caduvn27hfPRV0Jp8U-R-57">
          <mxGeometry relative="1" as="geometry">
            <mxPoint x="596" y="840" as="sourcePoint" />
            <mxPoint x="640" y="1210" as="targetPoint" />
          </mxGeometry>
        </mxCell>
        <mxCell id="caduvn27hfPRV0Jp8U-R-59" style="edgeStyle=orthogonalEdgeStyle;rounded=0;orthogonalLoop=1;jettySize=auto;html=1;fontSize=12;startSize=8;endSize=8;curved=1;strokeWidth=4;metaEdit=0;sourcePortConstraint=south;targetPortConstraint=north;arcSize=40;strokeColor=#FF0000;" edge="1" parent="1" source="caduvn27hfPRV0Jp8U-R-57" target="caduvn27hfPRV0Jp8U-R-39">
          <mxGeometry relative="1" as="geometry">
            <mxPoint x="596" y="960" as="sourcePoint" />
            <mxPoint x="596" y="1250" as="targetPoint" />
          </mxGeometry>
        </mxCell>
        <mxCell id="caduvn27hfPRV0Jp8U-R-79" style="edgeStyle=none;curved=1;rounded=0;orthogonalLoop=1;jettySize=auto;html=1;fontSize=12;startSize=8;endSize=8;endArrow=none;endFill=0;" edge="1" parent="1" source="caduvn27hfPRV0Jp8U-R-60" target="caduvn27hfPRV0Jp8U-R-77">
          <mxGeometry relative="1" as="geometry" />
        </mxCell>
        <mxCell id="caduvn27hfPRV0Jp8U-R-60" value="main" style="text;html=1;strokeColor=none;fillColor=none;align=center;verticalAlign=middle;whiteSpace=wrap;overflow=hidden;fontSize=14;fontStyle=1;fontFamily=Courier New;" vertex="1" parent="1">
          <mxGeometry x="199" y="410" width="50" height="42" as="geometry" />
        </mxCell>
        <mxCell id="caduvn27hfPRV0Jp8U-R-65" style="edgeStyle=none;curved=1;rounded=0;orthogonalLoop=1;jettySize=auto;html=1;fontSize=12;startSize=8;endSize=8;" edge="1" parent="1" source="caduvn27hfPRV0Jp8U-R-61">
          <mxGeometry relative="1" as="geometry">
            <mxPoint x="224.01499999999987" y="550" as="targetPoint" />
          </mxGeometry>
        </mxCell>
        <mxCell id="caduvn27hfPRV0Jp8U-R-61" value="主分支，放置所有已完成的小特性更新" style="text;html=1;strokeColor=none;fillColor=none;align=left;verticalAlign=middle;whiteSpace=wrap;overflow=hidden;fontSize=14;fontStyle=0;fontColor=#009900;" vertex="1" parent="1">
          <mxGeometry x="164.57999999999998" y="452" width="118.87" height="60" as="geometry" />
        </mxCell>
        <mxCell id="caduvn27hfPRV0Jp8U-R-80" style="edgeStyle=none;curved=1;rounded=0;orthogonalLoop=1;jettySize=auto;html=1;fontSize=12;startSize=8;endSize=8;endArrow=none;endFill=0;" edge="1" parent="1" source="caduvn27hfPRV0Jp8U-R-62" target="caduvn27hfPRV0Jp8U-R-77">
          <mxGeometry relative="1" as="geometry" />
        </mxCell>
        <mxCell id="caduvn27hfPRV0Jp8U-R-62" value="release" style="text;html=1;strokeColor=none;fillColor=none;align=center;verticalAlign=middle;whiteSpace=wrap;overflow=hidden;fontSize=14;fontStyle=1;fontFamily=Courier New;" vertex="1" parent="1">
          <mxGeometry x="310" y="410" width="70" height="42" as="geometry" />
        </mxCell>
        <mxCell id="caduvn27hfPRV0Jp8U-R-64" style="edgeStyle=none;curved=1;rounded=0;orthogonalLoop=1;jettySize=auto;html=1;fontSize=12;startSize=8;endSize=8;" edge="1" parent="1" source="caduvn27hfPRV0Jp8U-R-63">
          <mxGeometry relative="1" as="geometry">
            <mxPoint x="345" y="620" as="targetPoint" />
          </mxGeometry>
        </mxCell>
        <mxCell id="caduvn27hfPRV0Jp8U-R-63" value="发布分支，放置所有的大发布版本" style="text;html=1;strokeColor=none;fillColor=none;align=left;verticalAlign=middle;whiteSpace=wrap;overflow=hidden;fontSize=14;fontStyle=0;fontColor=#009900;" vertex="1" parent="1">
          <mxGeometry x="287.29" y="452" width="115.42" height="40" as="geometry" />
        </mxCell>
        <mxCell id="caduvn27hfPRV0Jp8U-R-81" style="edgeStyle=none;curved=1;rounded=0;orthogonalLoop=1;jettySize=auto;html=1;fontSize=12;startSize=8;endSize=8;endArrow=none;endFill=0;" edge="1" parent="1" source="caduvn27hfPRV0Jp8U-R-66" target="caduvn27hfPRV0Jp8U-R-77">
          <mxGeometry relative="1" as="geometry" />
        </mxCell>
        <mxCell id="caduvn27hfPRV0Jp8U-R-66" value="develop" style="text;html=1;strokeColor=none;fillColor=none;align=center;verticalAlign=middle;whiteSpace=wrap;overflow=hidden;fontSize=14;fontStyle=1;fontFamily=Courier New;" vertex="1" parent="1">
          <mxGeometry x="428.5" y="410" width="70" height="42" as="geometry" />
        </mxCell>
        <mxCell id="caduvn27hfPRV0Jp8U-R-70" style="edgeStyle=none;curved=1;rounded=0;orthogonalLoop=1;jettySize=auto;html=1;fontSize=12;startSize=8;endSize=8;" edge="1" parent="1" source="caduvn27hfPRV0Jp8U-R-67">
          <mxGeometry relative="1" as="geometry">
            <mxPoint x="463.5000000000002" y="630" as="targetPoint" />
          </mxGeometry>
        </mxCell>
        <mxCell id="caduvn27hfPRV0Jp8U-R-67" value="开发分支，所有正在进行，待完成和已完成的特性更新" style="text;html=1;strokeColor=none;fillColor=none;align=left;verticalAlign=middle;whiteSpace=wrap;overflow=hidden;fontSize=14;fontStyle=0;fontColor=#009900;" vertex="1" parent="1">
          <mxGeometry x="405.79" y="452" width="115.42" height="58" as="geometry" />
        </mxCell>
        <mxCell id="caduvn27hfPRV0Jp8U-R-83" style="edgeStyle=none;curved=1;rounded=0;orthogonalLoop=1;jettySize=auto;html=1;fontSize=12;startSize=8;endSize=8;endArrow=none;endFill=0;" edge="1" parent="1" source="caduvn27hfPRV0Jp8U-R-71" target="caduvn27hfPRV0Jp8U-R-82">
          <mxGeometry relative="1" as="geometry" />
        </mxCell>
        <mxCell id="caduvn27hfPRV0Jp8U-R-71" value="0.1.1-developer-xxx-xxx" style="text;html=1;strokeColor=none;fillColor=none;align=center;verticalAlign=middle;whiteSpace=wrap;overflow=hidden;fontSize=14;fontStyle=1;fontFamily=Courier New;" vertex="1" parent="1">
          <mxGeometry x="486.5" y="512" width="199" height="42" as="geometry" />
        </mxCell>
        <mxCell id="caduvn27hfPRV0Jp8U-R-73" style="edgeStyle=none;curved=1;rounded=0;orthogonalLoop=1;jettySize=auto;html=1;fontSize=12;startSize=8;endSize=8;" edge="1" parent="1" source="caduvn27hfPRV0Jp8U-R-72">
          <mxGeometry relative="1" as="geometry">
            <mxPoint x="585.9999999999998" y="750" as="targetPoint" />
          </mxGeometry>
        </mxCell>
        <mxCell id="caduvn27hfPRV0Jp8U-R-72" value="开发者分支，该开发者的所有更新" style="text;html=1;strokeColor=none;fillColor=none;align=left;verticalAlign=middle;whiteSpace=wrap;overflow=hidden;fontSize=14;fontStyle=0;fontColor=#009900;" vertex="1" parent="1">
          <mxGeometry x="528.29" y="554" width="115.42" height="43" as="geometry" />
        </mxCell>
        <mxCell id="caduvn27hfPRV0Jp8U-R-84" style="edgeStyle=none;curved=1;rounded=0;orthogonalLoop=1;jettySize=auto;html=1;fontSize=12;startSize=8;endSize=8;endArrow=none;endFill=0;" edge="1" parent="1" source="caduvn27hfPRV0Jp8U-R-74" target="caduvn27hfPRV0Jp8U-R-82">
          <mxGeometry relative="1" as="geometry" />
        </mxCell>
        <mxCell id="caduvn27hfPRV0Jp8U-R-74" value="1.1.1-developer-xxx-xxx" style="text;html=1;strokeColor=none;fillColor=none;align=center;verticalAlign=middle;whiteSpace=wrap;overflow=hidden;fontSize=14;fontStyle=1;fontFamily=Courier New;" vertex="1" parent="1">
          <mxGeometry x="605.5" y="600" width="199" height="42" as="geometry" />
        </mxCell>
        <mxCell id="caduvn27hfPRV0Jp8U-R-76" style="edgeStyle=none;curved=1;rounded=0;orthogonalLoop=1;jettySize=auto;html=1;fontSize=12;startSize=8;endSize=8;" edge="1" parent="1" source="caduvn27hfPRV0Jp8U-R-75">
          <mxGeometry relative="1" as="geometry">
            <mxPoint x="705" y="1190" as="targetPoint" />
          </mxGeometry>
        </mxCell>
        <mxCell id="caduvn27hfPRV0Jp8U-R-75" value="开发者分支，该开发者的所有更新" style="text;html=1;strokeColor=none;fillColor=none;align=left;verticalAlign=middle;whiteSpace=wrap;overflow=hidden;fontSize=14;fontStyle=0;fontColor=#009900;" vertex="1" parent="1">
          <mxGeometry x="647.29" y="642" width="115.42" height="43" as="geometry" />
        </mxCell>
        <mxCell id="caduvn27hfPRV0Jp8U-R-77" value="均由项目管理者控制，其他任何人不应当直接提交修改到这些分支" style="text;html=1;strokeColor=none;fillColor=none;align=left;verticalAlign=middle;whiteSpace=wrap;overflow=hidden;fontSize=14;fontStyle=0;fontColor=#009900;" vertex="1" parent="1">
          <mxGeometry x="232.89000000000004" y="330" width="224.21" height="40" as="geometry" />
        </mxCell>
        <mxCell id="caduvn27hfPRV0Jp8U-R-82" value="开发者分支创建者将拥有该分支的所有权，可以自由分配小版本号" style="text;html=1;strokeColor=none;fillColor=none;align=left;verticalAlign=middle;whiteSpace=wrap;overflow=hidden;fontSize=14;fontStyle=0;fontColor=#009900;" vertex="1" parent="1">
          <mxGeometry x="580.29" y="425" width="224.21" height="40" as="geometry" />
        </mxCell>
        <mxCell id="caduvn27hfPRV0Jp8U-R-85" value="Tag V0.0" style="text;html=1;strokeColor=none;fillColor=none;align=right;verticalAlign=middle;whiteSpace=wrap;overflow=hidden;fontSize=14;" vertex="1" parent="1">
          <mxGeometry x="126.5" y="565" width="72.5" height="20" as="geometry" />
        </mxCell>
        <mxCell id="caduvn27hfPRV0Jp8U-R-88" value="Tag V1.0" style="text;html=1;strokeColor=none;fillColor=none;align=right;verticalAlign=middle;whiteSpace=wrap;overflow=hidden;fontSize=14;" vertex="1" parent="1">
          <mxGeometry x="249" y="805" width="72.5" height="20" as="geometry" />
        </mxCell>
        <mxCell id="caduvn27hfPRV0Jp8U-R-89" value="V0.2" style="text;html=1;strokeColor=none;fillColor=none;align=right;verticalAlign=middle;whiteSpace=wrap;overflow=hidden;fontSize=14;" vertex="1" parent="1">
          <mxGeometry x="249" y="685" width="72.5" height="20" as="geometry" />
        </mxCell>
        <mxCell id="caduvn27hfPRV0Jp8U-R-90" value="&lt;strike&gt;Tag V1.1&lt;/strike&gt;" style="text;html=1;strokeColor=none;fillColor=none;align=right;verticalAlign=middle;whiteSpace=wrap;overflow=hidden;fontSize=14;fontColor=default;labelBackgroundColor=none;" vertex="1" parent="1">
          <mxGeometry x="126.5" y="1265" width="72.5" height="20" as="geometry" />
        </mxCell>
        <mxCell id="caduvn27hfPRV0Jp8U-R-91" value="Tag V1.1" style="text;html=1;strokeColor=none;fillColor=none;align=right;verticalAlign=middle;whiteSpace=wrap;overflow=hidden;fontSize=14;" vertex="1" parent="1">
          <mxGeometry x="126.5" y="1605" width="72.5" height="20" as="geometry" />
        </mxCell>
        <mxCell id="caduvn27hfPRV0Jp8U-R-93" value="Tag V2.0" style="text;html=1;strokeColor=none;fillColor=none;align=right;verticalAlign=middle;whiteSpace=wrap;overflow=hidden;fontSize=14;" vertex="1" parent="1">
          <mxGeometry x="249" y="1805" width="72.5" height="20" as="geometry" />
        </mxCell>
        <mxCell id="caduvn27hfPRV0Jp8U-R-95" value="V1.3" style="text;html=1;strokeColor=none;fillColor=none;align=right;verticalAlign=middle;whiteSpace=wrap;overflow=hidden;fontSize=14;" vertex="1" parent="1">
          <mxGeometry x="249" y="1725" width="72.5" height="20" as="geometry" />
        </mxCell>
        <mxCell id="caduvn27hfPRV0Jp8U-R-96" value="V1.0" style="text;html=1;strokeColor=none;fillColor=none;align=right;verticalAlign=middle;whiteSpace=wrap;overflow=hidden;fontSize=14;" vertex="1" parent="1">
          <mxGeometry x="126.5" y="965" width="72.5" height="20" as="geometry" />
        </mxCell>
        <mxCell id="caduvn27hfPRV0Jp8U-R-97" value="V2.0" style="text;html=1;strokeColor=none;fillColor=none;align=right;verticalAlign=middle;whiteSpace=wrap;overflow=hidden;fontSize=14;" vertex="1" parent="1">
          <mxGeometry x="126.5" y="1925" width="72.5" height="20" as="geometry" />
        </mxCell>
        <mxCell id="caduvn27hfPRV0Jp8U-R-99" value="[Merge] 大版本发布" style="text;html=1;strokeColor=none;fillColor=none;align=right;verticalAlign=middle;whiteSpace=wrap;overflow=hidden;fontSize=12;fontStyle=0;fontColor=#000000;rotation=0;" vertex="1" parent="1">
          <mxGeometry x="60" y="660" width="112.55" height="40" as="geometry" />
        </mxCell>
        <mxCell id="caduvn27hfPRV0Jp8U-R-100" value="[Merge] 从 main 分支同步" style="text;html=1;strokeColor=none;fillColor=none;align=right;verticalAlign=middle;whiteSpace=wrap;overflow=hidden;fontSize=12;fontStyle=0;fontColor=#000000;rotation=0;" vertex="1" parent="1">
          <mxGeometry x="32.55" y="740" width="140" height="40" as="geometry" />
        </mxCell>
        <mxCell id="caduvn27hfPRV0Jp8U-R-103" style="edgeStyle=orthogonalEdgeStyle;rounded=0;orthogonalLoop=1;jettySize=auto;html=1;fontSize=12;startSize=8;endSize=8;curved=1;strokeWidth=1;metaEdit=0;sourcePortConstraint=south;targetPortConstraint=east;arcSize=40;dashed=1;endArrow=none;endFill=0;" edge="1" parent="1" target="caduvn27hfPRV0Jp8U-R-99">
          <mxGeometry relative="1" as="geometry">
            <mxPoint x="290" y="630" as="sourcePoint" />
            <mxPoint x="355" y="810" as="targetPoint" />
          </mxGeometry>
        </mxCell>
        <mxCell id="caduvn27hfPRV0Jp8U-R-104" style="edgeStyle=orthogonalEdgeStyle;rounded=0;orthogonalLoop=1;jettySize=auto;html=1;fontSize=12;startSize=8;endSize=8;curved=1;strokeWidth=1;metaEdit=0;sourcePortConstraint=south;targetPortConstraint=east;arcSize=40;dashed=1;endArrow=none;endFill=0;" edge="1" parent="1" target="caduvn27hfPRV0Jp8U-R-100">
          <mxGeometry relative="1" as="geometry">
            <mxPoint x="410" y="640" as="sourcePoint" />
            <mxPoint x="183" y="690" as="targetPoint" />
          </mxGeometry>
        </mxCell>
        <mxCell id="caduvn27hfPRV0Jp8U-R-105" value="[创建分支]" style="text;html=1;strokeColor=none;fillColor=none;align=left;verticalAlign=middle;whiteSpace=wrap;overflow=hidden;fontSize=12;fontStyle=0;fontColor=#000000;rotation=0;" vertex="1" parent="1">
          <mxGeometry x="762.71" y="700" width="77.29" height="40" as="geometry" />
        </mxCell>
        <mxCell id="caduvn27hfPRV0Jp8U-R-106" style="edgeStyle=orthogonalEdgeStyle;rounded=0;orthogonalLoop=1;jettySize=auto;html=1;fontSize=12;startSize=8;endSize=8;curved=1;strokeWidth=1;metaEdit=0;sourcePortConstraint=south;targetPortConstraint=west;arcSize=40;dashed=1;endArrow=none;endFill=0;" edge="1" parent="1" target="caduvn27hfPRV0Jp8U-R-105">
          <mxGeometry relative="1" as="geometry">
            <mxPoint x="529" y="756" as="sourcePoint" />
            <mxPoint x="182" y="766" as="targetPoint" />
          </mxGeometry>
        </mxCell>
        <mxCell id="caduvn27hfPRV0Jp8U-R-107" value="V0.1.0" style="text;html=1;strokeColor=none;fillColor=none;align=right;verticalAlign=middle;whiteSpace=wrap;overflow=hidden;fontSize=14;" vertex="1" parent="1">
          <mxGeometry x="400" y="685" width="42.5" height="20" as="geometry" />
        </mxCell>
        <mxCell id="caduvn27hfPRV0Jp8U-R-108" value="V0.1.1.2" style="text;html=1;strokeColor=none;fillColor=none;align=right;verticalAlign=middle;whiteSpace=wrap;overflow=hidden;fontSize=14;" vertex="1" parent="1">
          <mxGeometry x="497.5" y="885" width="62.5" height="20" as="geometry" />
        </mxCell>
        <mxCell id="caduvn27hfPRV0Jp8U-R-109" value="V0.1.1.1" style="text;html=1;strokeColor=none;fillColor=none;align=right;verticalAlign=middle;whiteSpace=wrap;overflow=hidden;fontSize=14;" vertex="1" parent="1">
          <mxGeometry x="500" y="805" width="60" height="20" as="geometry" />
        </mxCell>
        <mxCell id="caduvn27hfPRV0Jp8U-R-111" value="V0.1.1" style="text;html=1;strokeColor=none;fillColor=none;align=right;verticalAlign=middle;whiteSpace=wrap;overflow=hidden;fontSize=14;" vertex="1" parent="1">
          <mxGeometry x="400" y="1005" width="42.5" height="20" as="geometry" />
        </mxCell>
        <mxCell id="caduvn27hfPRV0Jp8U-R-112" value="V1.1.0" style="text;html=1;strokeColor=none;fillColor=none;align=right;verticalAlign=middle;whiteSpace=wrap;overflow=hidden;fontSize=14;" vertex="1" parent="1">
          <mxGeometry x="400" y="1125" width="42.5" height="20" as="geometry" />
        </mxCell>
        <mxCell id="caduvn27hfPRV0Jp8U-R-113" value="[Pull Request] 由管理者进行代码审查，最后由管理者合并分支" style="text;html=1;strokeColor=none;fillColor=none;align=left;verticalAlign=middle;whiteSpace=wrap;overflow=hidden;fontSize=12;fontStyle=0;fontColor=#000000;rotation=0;" vertex="1" parent="1">
          <mxGeometry x="762.71" y="985" width="107.29" height="70" as="geometry" />
        </mxCell>
        <mxCell id="caduvn27hfPRV0Jp8U-R-114" style="edgeStyle=orthogonalEdgeStyle;rounded=0;orthogonalLoop=1;jettySize=auto;html=1;fontSize=12;startSize=8;endSize=8;curved=1;strokeWidth=1;metaEdit=0;sourcePortConstraint=south;targetPortConstraint=west;arcSize=40;dashed=1;endArrow=none;endFill=0;" edge="1" parent="1" target="caduvn27hfPRV0Jp8U-R-113">
          <mxGeometry relative="1" as="geometry">
            <mxPoint x="530" y="960" as="sourcePoint" />
            <mxPoint x="773" y="730" as="targetPoint" />
          </mxGeometry>
        </mxCell>
        <mxCell id="caduvn27hfPRV0Jp8U-R-119" value="V0.1.1 Update" style="text;html=1;strokeColor=none;fillColor=none;align=right;verticalAlign=middle;whiteSpace=wrap;overflow=hidden;fontSize=14;" vertex="1" parent="1">
          <mxGeometry x="350" y="1365" width="92.5" height="20" as="geometry" />
        </mxCell>
        <mxCell id="caduvn27hfPRV0Jp8U-R-120" value="V0.1.1.3" style="text;html=1;strokeColor=none;fillColor=none;align=right;verticalAlign=middle;whiteSpace=wrap;overflow=hidden;fontSize=14;" vertex="1" parent="1">
          <mxGeometry x="497.5" y="1245" width="62.5" height="20" as="geometry" />
        </mxCell>
        <mxCell id="caduvn27hfPRV0Jp8U-R-121" value="V1.1.1" style="text;html=1;strokeColor=none;fillColor=none;align=right;verticalAlign=middle;whiteSpace=wrap;overflow=hidden;fontSize=14;" vertex="1" parent="1">
          <mxGeometry x="400" y="1485" width="42.5" height="20" as="geometry" />
        </mxCell>
        <mxCell id="caduvn27hfPRV0Jp8U-R-122" value="V1.1.1" style="text;html=1;strokeColor=none;fillColor=none;align=right;verticalAlign=middle;whiteSpace=wrap;overflow=hidden;fontSize=14;" vertex="1" parent="1">
          <mxGeometry x="618" y="1245" width="62.5" height="20" as="geometry" />
        </mxCell>
        <mxCell id="caduvn27hfPRV0Jp8U-R-123" value="V1.1.2" style="text;html=1;strokeColor=none;fillColor=none;align=right;verticalAlign=middle;whiteSpace=wrap;overflow=hidden;fontSize=14;" vertex="1" parent="1">
          <mxGeometry x="618" y="1365" width="62.5" height="20" as="geometry" />
        </mxCell>
        <mxCell id="caduvn27hfPRV0Jp8U-R-124" style="edgeStyle=orthogonalEdgeStyle;rounded=0;orthogonalLoop=1;jettySize=auto;html=1;fontSize=12;startSize=8;endSize=8;curved=1;strokeWidth=4;metaEdit=0;sourcePortConstraint=south;targetPortConstraint=north;arcSize=40;strokeColor=#00CC00;" edge="1" parent="1" source="caduvn27hfPRV0Jp8U-R-52" target="caduvn27hfPRV0Jp8U-R-19">
          <mxGeometry relative="1" as="geometry">
            <mxPoint x="355" y="840" as="sourcePoint" />
            <mxPoint x="234" y="930" as="targetPoint" />
          </mxGeometry>
        </mxCell>
        <mxCell id="caduvn27hfPRV0Jp8U-R-126" value="" style="edgeStyle=none;orthogonalLoop=1;jettySize=auto;html=1;rounded=0;fontSize=12;startSize=8;endSize=8;curved=1;dashed=1;" edge="1" parent="1" source="caduvn27hfPRV0Jp8U-R-90" target="caduvn27hfPRV0Jp8U-R-91">
          <mxGeometry width="120" relative="1" as="geometry">
            <mxPoint x="160" y="1300" as="sourcePoint" />
            <mxPoint x="280" y="1300" as="targetPoint" />
            <Array as="points" />
          </mxGeometry>
        </mxCell>
        <mxCell id="caduvn27hfPRV0Jp8U-R-127" value="" style="verticalLabelPosition=bottom;verticalAlign=top;html=1;strokeWidth=4;shape=mxgraph.flowchart.on-page_reference;plain-purple;gradientColor=none;strokeColor=#000000;fillColor=#D5E8D4;" vertex="1" parent="1">
          <mxGeometry x="448.5" y="2040" width="30" height="30" as="geometry" />
        </mxCell>
        <mxCell id="caduvn27hfPRV0Jp8U-R-128" style="edgeStyle=orthogonalEdgeStyle;rounded=0;orthogonalLoop=1;jettySize=auto;html=1;fontSize=12;startSize=8;endSize=8;curved=1;strokeWidth=4;metaEdit=0;sourcePortConstraint=south;targetPortConstraint=north;arcSize=40;" edge="1" parent="1" source="caduvn27hfPRV0Jp8U-R-22" target="caduvn27hfPRV0Jp8U-R-127">
          <mxGeometry relative="1" as="geometry">
            <mxPoint x="474" y="1400" as="sourcePoint" />
            <mxPoint x="474" y="1490" as="targetPoint" />
          </mxGeometry>
        </mxCell>
        <mxCell id="caduvn27hfPRV0Jp8U-R-129" style="edgeStyle=orthogonalEdgeStyle;rounded=0;orthogonalLoop=1;jettySize=auto;html=1;fontSize=12;startSize=8;endSize=8;curved=1;strokeWidth=4;metaEdit=0;sourcePortConstraint=south;targetPortConstraint=north;arcSize=40;strokeColor=#00CC66;" edge="1" parent="1" source="caduvn27hfPRV0Jp8U-R-14" target="caduvn27hfPRV0Jp8U-R-127">
          <mxGeometry relative="1" as="geometry">
            <mxPoint x="484" y="1410" as="sourcePoint" />
            <mxPoint x="484" y="1500" as="targetPoint" />
          </mxGeometry>
        </mxCell>
        <mxCell id="caduvn27hfPRV0Jp8U-R-130" value="V2.1.0" style="text;html=1;strokeColor=none;fillColor=none;align=right;verticalAlign=middle;whiteSpace=wrap;overflow=hidden;fontSize=14;" vertex="1" parent="1">
          <mxGeometry x="370" y="2045" width="72.5" height="20" as="geometry" />
        </mxCell>
      </root>
    </mxGraphModel>
  </diagram>
</mxfile>
